<?xml version="1.0" encoding="UTF-8" standalone="no"?>
<!-- Created with Inkscape (http://www.inkscape.org/) -->

<svg
   xmlns:dc="http://purl.org/dc/elements/1.1/"
   xmlns:cc="http://creativecommons.org/ns#"
   xmlns:rdf="http://www.w3.org/1999/02/22-rdf-syntax-ns#"
   xmlns:svg="http://www.w3.org/2000/svg"
   xmlns="http://www.w3.org/2000/svg"
   xmlns:sodipodi="http://sodipodi.sourceforge.net/DTD/sodipodi-0.dtd"
   xmlns:inkscape="http://www.inkscape.org/namespaces/inkscape"
   width="290.93518mm"
   height="164.01051mm"
   viewBox="0 0 290.93518 164.01051"
   version="1.1"
   id="svg8"
   inkscape:version="0.92.3 (2405546, 2018-03-11)"
   sodipodi:docname="Elex_Media.svg">
  <defs
     id="defs2" />
  <sodipodi:namedview
     id="base"
     pagecolor="#ffffff"
     bordercolor="#666666"
     borderopacity="1.0"
     inkscape:pageopacity="0.0"
     inkscape:pageshadow="2"
     inkscape:zoom="0.12374369"
     inkscape:cx="794.04607"
     inkscape:cy="682.46131"
     inkscape:document-units="mm"
     inkscape:current-layer="layer1"
     showgrid="false"
     fit-margin-top="0"
     fit-margin-left="0"
     fit-margin-right="0"
     fit-margin-bottom="0"
     inkscape:window-width="1366"
     inkscape:window-height="745"
     inkscape:window-x="-8"
     inkscape:window-y="-8"
     inkscape:window-maximized="1" />
  <metadata
     id="metadata5">
    <rdf:RDF>
      <cc:Work
         rdf:about="">
        <dc:format>image/svg+xml</dc:format>
        <dc:type
           rdf:resource="http://purl.org/dc/dcmitype/StillImage" />
        <dc:title></dc:title>
      </cc:Work>
    </rdf:RDF>
  </metadata>
  <g
     inkscape:label="Layer 1"
     inkscape:groupmode="layer"
     id="layer1"
     transform="translate(205.04546,-520.42784)">
    <path
       style="fill:#ed1d25;fill-opacity:1;stroke-width:0.19831984"
       d="M -205.04546,602.4331 V 520.42784 H -59.577866 85.88973 v 82.00526 82.00525 H -59.577866 -205.04546 Z"
       id="path971"
       inkscape:connector-curvature="0" />
    <path
       id="path909"
       style="fill:#ffffff;stroke-width:0.19831984"
       d="m 9.6166731,561.77752 c -0.034684,-3.2481 -1.1269104,-6.93994 -2.9771154,-10.06314 -1.3874258,-2.34202 -4.5696853,-5.49167 -6.82063546,-6.75073 -2.03589174,-1.13877 -4.69557884,-2.02522 -6.95539344,-2.31819 -1.1616583,-0.1506 -10.7756878,-0.19966 -31.5186528,-0.16083 l -29.847134,0.0559 -0.930913,4.4622 c -1.655396,7.93493 -3.176073,16.06651 -3.06079,16.36695 0.09868,0.25718 5.108124,0.28676 41.121042,0.24281 l 41.0086708,-0.05 -0.019055,-1.78488 z m -35.8813691,50.81945 c 0.05618,-0.24543 0.597855,-3.03429 1.203702,-6.1975 0.605867,-3.1632 1.464731,-7.60005 1.90863,-9.85968 0.443879,-2.25963 0.754409,-4.24562 0.690054,-4.41331 -0.104614,-0.27263 -3.05946,-0.29958 -27.929124,-0.25462 l -27.812134,0.0503 -2.032123,10.39546 c -1.117651,5.7175 -1.986193,10.46974 -1.930091,10.56053 0.05611,0.0908 12.633827,0.16508 27.950484,0.16508 h 27.848447 z m -78.394634,-1.68572 c 0.93391,-1.28164 1.88755,-2.64261 2.1192,-3.02438 0.32785,-0.54032 0.42134,-0.60494 0.42192,-0.29167 4e-4,0.22136 0.38786,1.56002 0.86099,2.97481 l 0.86026,2.57234 4.891018,0.053 c 3.049623,0.0331 4.891025,-0.019 4.891025,-0.13849 0,-0.10534 -1.113768,-2.48165 -2.475013,-5.28068 -2.094795,-4.30732 -2.437551,-5.14116 -2.2311,-5.42777 0.134144,-0.18625 1.984171,-2.27709 4.111151,-4.64633 2.12698,-2.36923 3.867239,-4.41585 3.867239,-4.54804 0,-0.17923 -1.09425,-0.25394 -4.302807,-0.29377 l -4.302817,-0.0534 -1.091568,1.47602 c -0.600364,0.81181 -1.362032,1.90678 -1.692598,2.43325 -0.523562,0.83387 -0.602164,0.89334 -0.609843,0.46144 -0.0049,-0.27269 -0.296586,-1.34362 -0.648305,-2.37984 l -0.639492,-1.88403 -4.81412,-0.0531 c -3.96837,-0.0438 -4.83276,-0.004 -4.92017,0.22322 -0.0583,0.15199 0.77895,1.96076 1.86059,4.01951 1.08165,2.05875 2.15529,4.11385 2.38585,4.56689 l 0.41922,0.82371 -4.80352,5.09745 c -2.64193,2.8036 -4.87489,5.22181 -4.96211,5.37379 -0.13365,0.23286 0.57009,0.27632 4.47419,0.27632 h 4.63278 z m -12.46843,1.88403 c 0.45055,-1.91438 0.93778,-4.76799 0.83213,-4.87365 -0.0711,-0.0711 -2.40437,-0.0988 -5.18504,-0.0616 l -5.05577,0.0677 0.13808,-0.7641 c 0.278,-1.5384 0.0242,-1.45787 4.60462,-1.46125 2.25949,-10e-4 4.21233,-0.0693 4.33964,-0.15029 0.21778,-0.13855 1.0576,-3.96763 1.0576,-4.82205 0,-0.38018 -0.13633,-0.39337 -3.91681,-0.37896 -2.15425,0.008 -4.08293,0.0115 -4.28595,0.007 -0.31813,-0.007 -0.34995,-0.10985 -0.2303,-0.74766 0.30075,-1.60313 -0.0734,-1.50952 5.58426,-1.39711 2.7721,0.0551 5.08372,0.0297 5.13694,-0.0564 0.19775,-0.31996 1.07665,-4.99455 0.97116,-5.16525 -0.0619,-0.10009 -4.119,-0.17732 -9.31518,-0.17732 h -9.2056 l -0.2744,0.44622 c -0.15093,0.24542 -0.3852,1.11555 -0.5206,1.93362 -0.56085,3.3884 -1.88029,9.88313 -2.79667,13.76611 -0.53836,2.28118 -0.97883,4.17762 -0.97883,4.2143 0,0.0367 4.27404,0.0667 9.49785,0.0667 h 9.49785 z m -22.4643,-0.69411 c 0.12887,-0.62719 0.38865,-1.85429 0.57731,-2.7269 0.18865,-0.8726 0.30332,-1.70378 0.25483,-1.84705 -0.0711,-0.21019 -0.90766,-0.23327 -4.33132,-0.11952 l -4.24315,0.14098 v -0.51883 c 0,-0.82107 1.91582,-10.16481 2.4791,-12.09095 0.28034,-0.9586 0.45666,-1.82873 0.39183,-1.93362 -0.19066,-0.30851 -8.52557,-0.24863 -8.78429,0.0631 -0.11585,0.13959 -0.57865,2.25913 -1.02843,4.71009 -0.93172,5.07717 -1.73043,8.90374 -2.58203,12.37032 -0.32408,1.31922 -0.58951,2.55476 -0.58986,2.74565 -4.8e-4,0.32533 0.55092,0.34705 8.81054,0.34705 h 8.81117 z m -22.92297,0.95686 c 0.20317,-0.32874 1.10515,-5.03373 0.98755,-5.15133 -0.0629,-0.0629 -2.38367,-0.084 -5.15729,-0.0468 -5.65962,0.0757 -5.2779,0.18682 -4.83525,-1.40702 l 0.20549,-0.73993 4.39721,-0.0533 4.3972,-0.0534 0.44082,-2.28068 c 0.24244,-1.25437 0.44645,-2.43685 0.45335,-2.62773 0.0116,-0.32022 -0.319,-0.34706 -4.27341,-0.34706 h -4.28595 l 0.13883,-0.74005 c 0.30075,-1.60313 -0.0734,-1.50952 5.58426,-1.39711 2.7721,0.0551 5.07924,0.0369 5.12699,-0.0403 0.20031,-0.3241 1.09589,-4.86741 1.00576,-5.10227 -0.0785,-0.20462 -1.97982,-0.2564 -9.41393,-0.2564 -5.93278,0 -9.35961,0.0713 -9.43688,0.19631 -0.0667,0.10797 -0.47835,2.13514 -0.91471,4.50483 -0.96932,5.26395 -1.75225,8.9628 -2.66068,12.57013 -0.37935,1.50637 -0.68973,2.83264 -0.68973,2.94727 0,0.26859 18.7645,0.29331 18.93037,0.0249 z m 68.026034,21.84992 c 0.662941,-3.7985 2.484054,-12.69081 3.157409,-15.41739 0.503355,-2.03817 0.623577,-2.81369 0.453041,-2.92218 -0.127699,-0.0812 -2.085889,-0.14905 -4.351553,-0.15072 -4.089121,-0.003 -4.120684,2e-4 -4.294679,0.44319 -0.09641,0.24542 -0.642572,2.90042 -1.213702,5.90001 -0.57112,2.99959 -1.47178,7.32792 -2.00147,9.61851 -0.52968,2.29059 -0.96328,4.23165 -0.96357,4.31346 -2e-4,0.0818 1.99694,0.14874 4.438271,0.14874 h 4.43877 z m -39.146394,-0.64932 c 0.2809,-1.36608 0.48176,-2.57087 0.44635,-2.67731 -0.0404,-0.12149 -1.95658,-0.16847 -5.14685,-0.12618 l -5.08247,0.0674 0.14365,-0.9598 c 0.079,-0.5279 0.18486,-1.02675 0.23521,-1.10855 0.0504,-0.0818 2.04965,-0.14874 4.44289,-0.14874 2.39323,0 4.35133,-0.0324 4.35133,-0.0719 0,-0.0396 0.22254,-1.16454 0.49452,-2.5 0.27199,-1.33546 0.44521,-2.50791 0.38494,-2.60544 -0.0603,-0.0975 -2.01347,-0.17731 -4.34043,-0.17731 h -4.23085 l 0.23233,-1.04118 0.23233,-1.04118 5.19322,0.0123 c 3.49494,0.008 5.21824,-0.0566 5.26974,-0.19832 0.27705,-0.76269 0.96319,-4.69408 0.86425,-4.95193 -0.10846,-0.28266 -1.08877,-0.31586 -9.32502,-0.31586 -7.12546,0 -9.24843,0.056 -9.4014,0.2479 -0.10867,0.13635 -0.25921,0.69412 -0.33452,1.2395 -0.26337,1.90715 -2.31629,11.92731 -3.09445,15.10377 -0.43177,1.76252 -0.78505,3.34747 -0.78505,3.5221 0,0.28743 0.89735,0.31264 9.46978,0.26602 l 9.46977,-0.0515 z m 55.066536,-7.45061 c -0.112983,-0.11298 2.802299,-4.86111 3.316126,-5.40095 0.202881,-0.21317 0.295298,0.16275 0.48749,1.9832 0.130435,1.23542 0.286552,2.53627 0.346921,2.89077 l 0.10977,0.64454 h -2.071371 c -1.139269,0 -2.124284,-0.0529 -2.188936,-0.11756 z m -5.884844,10.02643 c 0.211134,-0.113 0.616143,-0.66382 0.900037,-1.22406 0.283895,-0.56023 0.83312,-1.49597 1.220498,-2.07941 l 0.704335,-1.0608 3.786816,0.0538 3.786799,0.0537 0.246967,1.38824 c 0.135809,0.76353 0.296032,1.7229 0.356044,2.13194 l 0.109076,0.7437 h 4.354052 c 2.394732,0 4.355897,-0.0669 4.358158,-0.14874 0.0083,-0.30436 -4.209398,-19.40301 -4.379755,-19.83198 -0.176921,-0.4455 -0.184933,-0.44622 -4.956132,-0.44622 -4.711682,0 -4.784267,0.006 -5.15705,0.44622 -0.681981,0.8048 -14.260541,19.6796 -14.264091,19.8277 -0.0019,0.0795 1.714494,0.17074 3.814204,0.20286 2.09971,0.0321 4.024325,0.0787 4.276907,0.10344 0.252601,0.0247 0.632005,-0.0474 0.843135,-0.1604 z m -36.073782,-5.72236 c -0.21326,-0.13257 -0.0977,-0.99498 0.60354,-4.50549 l 0.86729,-4.34154 1.57798,-0.0533 c 2.76877,-0.0935 3.59648,0.76197 3.40958,3.52387 -0.1588,2.34689 -1.63796,4.38519 -3.63907,5.0147 -1.29835,0.40843 -2.49682,0.5622 -2.81932,0.36173 z m 1.25535,5.73558 c 2.14425,-0.0991 4.04492,-0.29289 4.75967,-0.48519 2.02399,-0.54456 3.98449,-1.63297 5.4763,-3.04027 2.52061,-2.37781 3.90603,-6.14705 3.7009,-10.06879 -0.11416,-2.18247 -0.67812,-3.59519 -1.93829,-4.85536 -1.74796,-1.74796 -3.09391,-1.9568 -12.718,-1.97334 -4.4724,-0.008 -5.9232,0.0491 -6.07447,0.23781 -0.10931,0.13634 -0.52701,2.03278 -0.92823,4.21429 -1.05742,5.74942 -2.67126,13.1506 -3.40394,15.61063 -0.0902,0.30292 0.12163,0.34702 1.94264,0.40439 4.01593,0.12653 5.66261,0.11861 9.18342,-0.0442 z m -62.05276,-0.003 2.99616,-0.003 0.31911,-1.63614 c 0.17551,-0.89988 0.79061,-3.67681 1.36688,-6.17095 l 1.04778,-4.53481 0.0524,6.17531 0.0524,6.17532 3.69605,-0.0539 3.69606,-0.0539 2.84124,-6.34624 c 1.56268,-3.49043 2.84219,-6.25699 2.84335,-6.14791 0.005,0.44706 -1.58722,9.04803 -1.96387,10.61011 -0.22354,0.92714 -0.40707,1.75265 -0.40783,1.83446 -0.002,0.19803 7.08765,0.19252 7.2101,-0.006 0.0525,-0.0849 0.19767,-0.91039 0.32269,-1.83446 0.12502,-0.92406 0.93663,-5.3379 1.80359,-9.80853 0.86694,-4.47064 1.53299,-8.24119 1.4801,-8.37902 -0.0742,-0.19334 -1.31779,-0.2506 -5.44285,-0.2506 -4.59621,0 -5.39044,0.0438 -5.65834,0.31165 -0.17141,0.1714 -0.31164,0.39586 -0.31164,0.49879 0,0.27387 -3.79242,9.36764 -4.00379,9.6006 -0.1072,0.11814 -0.16799,-1.8503 -0.15123,-4.89684 0.0154,-2.80193 -0.0303,-5.18886 -0.10171,-5.3043 -0.19974,-0.3232 -10.50703,-0.28682 -10.76745,0.038 -0.10931,0.13634 -0.48641,1.58656 -0.83799,3.2227 -0.81236,3.78035 -2.35185,10.00813 -3.3911,13.7182 -0.44323,1.58231 -0.75368,3.01295 -0.68989,3.17919 0.0776,0.2023 0.26278,0.26293 0.5598,0.18332 0.2441,-0.0654 1.79208,-0.12017 3.43996,-0.12166 z m 222.783561,0.74099 c 0.123073,-0.57264 1.243247,-6.26194 2.489268,-12.64288 1.246045,-6.38094 3.3926,-17.31333 4.770127,-24.29418 2.281573,-11.56219 2.513706,-12.93972 2.606717,-15.46895 0.207222,-5.63492 -1.18974,-9.58856 -4.679635,-13.24402 -2.337497,-2.44838 -4.682983,-3.8771 -7.896716,-4.81017 -0.959493,-0.27858 -2.32098,-0.52482 -3.025527,-0.54719 l -1.28099,-0.0407 -3.037625,15.56811 c -1.670707,8.56246 -4.820181,24.67784 -6.998864,35.81197 -2.178683,11.13413 -3.961243,20.34856 -3.961243,20.47652 0,0.17504 2.574513,0.23266 10.395353,0.23266 h 10.395371 z m -20.982259,-18.9895 c 2.14727,-10.96213 4.421322,-22.56384 5.053467,-25.78158 1.091534,-5.55613 1.148548,-5.99509 1.133497,-8.72607 -0.01843,-3.35427 -0.379586,-5.02591 -1.667692,-7.72027 -1.960452,-4.10077 -4.99623,-6.95787 -9.189683,-8.6488 -2.482828,-1.00116 -5.668342,-1.57429 -5.9767269,-1.07531 -0.1337246,0.21637 -0.3039231,1.07845 -8.7100282,44.1184 -2.897294,14.83432 -5.3140789,27.17308 -5.3706397,27.41947 l -0.1028287,0.44797 10.463255,-0.0513 10.4632765,-0.0513 z m -28.088851,19.7824 c 0.05079,-0.13634 2.3852917,-11.84961 5.1877691,-26.02948 l 5.0954315,-25.78157 0.011901,-3.66892 c 0.010709,-3.31161 -0.033338,-3.81377 -0.4525461,-5.15632 -1.28136408,-4.10369 -3.6700673,-6.80967 -7.5991797,-8.60852 -1.7516599,-0.80196 -3.0575759,-1.18795 -5.3985238,-1.59567 -1.537454,-0.26777 -5.612966,-0.30675 -32.071251,-0.30675 -28.666973,0 -30.319572,0.0188 -30.487053,0.34706 -0.307495,0.60262 -4.066032,20.22089 -3.937938,20.55466 0.111456,0.29046 2.699193,0.3185 29.393974,0.3185 27.784072,0 29.266632,0.0177 29.170903,0.34706 -0.05547,0.19088 -2.160754,10.87784 -4.678424,23.7488 -2.51767,12.87096 -4.69776,24.00414 -4.844656,24.74039 l -0.267077,1.33866 h 10.392157 c 8.1322829,0 10.4122471,-0.0539 10.4845147,-0.2479 z m 32.419661,16.5199 c 0,-0.58011 1.538565,-8.10111 1.715961,-8.38813 0.162244,-0.26251 3.027611,-0.16144 3.728772,0.13152 1.078282,0.45053 1.397912,1.13468 1.393474,2.98264 -0.0034,1.33637 -0.08873,1.75622 -0.526896,2.58688 -0.920028,1.74419 -2.352629,2.73536 -4.45,3.07884 -1.78226,0.29187 -1.861311,0.27523 -1.861311,-0.39175 z m 6.093554,5.76699 c 5.145507,-1.3053 8.197826,-4.24214 9.507929,-9.14819 0.471328,-1.76503 0.479138,-4.92512 0.01549,-6.24708 -0.565193,-1.61135 -1.662955,-2.88118 -3.130241,-3.62095 -1.781055,-0.89795 -3.788188,-1.06799 -11.777563,-0.99779 l -6.529541,0.0574 -0.367802,1.9832 c -0.991563,5.34647 -2.255432,11.40589 -3.047423,14.61047 -0.483268,1.95538 -0.878678,3.58893 -0.878678,3.63013 0,0.23522 1.36498,0.27334 7.635316,0.21323 6.249097,-0.0599 7.103857,-0.10782 8.572551,-0.4804 z m -36.6227508,0.17284 c 0.084742,-0.16362 0.4336261,-1.77001 0.7752914,-3.56976 0.3416657,-1.79975 0.7754703,-3.9388 0.9639733,-4.75344 l 0.3427763,-1.48116 1.4239561,3.48544 c 0.7831848,1.91698 1.62104621,4.10065 1.86194549,4.85259 0.24089879,0.75194 0.52314799,1.47872 0.62724589,1.61507 0.14247289,0.18663 1.39623092,0.24715 5.07335812,0.24486 2.686282,-10e-4 4.9899842,-0.0703 5.1193282,-0.15259 0.129364,-0.0823 0.375381,-1.02065 0.546689,-2.08533 0.469186,-2.91569 2.827885,-14.07369 3.399262,-16.0804 0.275882,-0.9689 0.454768,-1.88365 0.397551,-2.03277 -0.08303,-0.2164 -0.880201,-0.27114 -3.948507,-0.27114 H 7.0164446 l -0.4340622,2.33026 c -0.5486522,2.94546 -1.6459359,7.58643 -1.7930099,7.58352 -0.06138,-0.001 -0.9505666,-2.12075 -1.9759595,-4.71009 -1.0253928,-2.58934 -1.95107033,-4.81944 -2.05707225,-4.95579 -0.23439418,-0.30153 -10.16399035,-0.36286 -10.34874515,-0.0639 -0.06253,0.10119 -0.6416646,2.71157 -1.2869376,5.80085 -1.424352,6.81908 -1.839931,8.68914 -2.609908,11.74397 -0.32703,1.29745 -0.547462,2.48178 -0.48989,2.63186 0.161036,0.41964 8.0366533,0.29371 8.2571652,-0.13203 z m -12.7743752,0.24486 c 0.125199,-0.0801 0.467578,-1.43974 0.760834,-3.02134 0.883852,-4.76691 2.062983,-10.41959 2.889699,-13.85296 0.429481,-1.78357 0.731304,-3.32303 0.670737,-3.42102 -0.06057,-0.098 -2.05729,-0.17817 -4.437168,-0.17817 -3.473354,0 -4.372655,0.055 -4.558183,0.27851 -0.127143,0.15319 -0.625323,2.4066 -1.107101,5.00758 -0.947036,5.11275 -2.003684,10.00744 -2.78201,12.88696 -0.269319,0.99641 -0.489672,1.95578 -0.489672,2.13194 0,0.28532 0.48164,0.31994 4.412616,0.31724 2.426939,-10e-4 4.515049,-0.0686 4.640248,-0.14874 z m -18.231561,-0.0961 c 0.10499,-0.13635 0.572271,-2.30052 1.038382,-4.80926 0.763829,-4.11119 1.641037,-8.35965 1.91331,-9.26659 0.09089,-0.30272 0.473271,-0.34849 3.313607,-0.39665 l 3.210878,-0.0544 0.535364,-2.67732 c 0.294446,-1.47253 0.498041,-2.78887 0.452427,-2.92522 -0.105843,-0.31647 -21.416915,-0.36693 -21.612061,-0.0512 -0.187571,0.30349 -1.06952,5.43008 -0.963637,5.60141 0.05148,0.0833 1.477086,0.15146 3.168021,0.15146 h 3.074393 l -0.131942,0.94201 c -0.23372,1.66852 -1.076282,5.60531 -2.012054,9.4013 -0.50163,2.03478 -0.857396,3.84197 -0.790622,4.01598 0.105903,0.27599 0.663381,0.31637 4.367221,0.31637 3.162626,0 4.294517,-0.0632 4.436713,-0.24789 z m -55.483998,0.0729 c 0.452052,-0.12616 0.516978,-0.31881 0.945629,-2.80629 0.987809,-5.73242 2.277781,-11.99329 2.500156,-12.13474 0.415028,-0.26395 2.015845,-0.16407 2.470117,0.15411 1.115687,0.78147 0.120757,2.46775 -1.456008,2.46775 -1.372413,0 -1.475974,0.0962 -1.464473,1.35988 0.01785,1.96352 0.293494,3.81448 0.596568,4.00624 0.385732,0.24407 3.053887,0.23456 4.372894,-0.0156 2.580537,-0.48939 5.216662,-2.40277 6.30159,-4.57389 1.559548,-3.12095 1.238746,-6.43311 -0.755697,-7.80224 -1.340385,-0.92014 -2.155675,-1.00098 -10.123573,-1.00376 l -7.431654,-0.002 -0.356152,1.9832 c -0.824784,4.59274 -2.211052,11.25752 -3.03491,14.59097 -0.485918,1.9661 -0.883488,3.61009 -0.883488,3.65331 0,0.2391 7.505534,0.35065 8.319001,0.12364 z m -33.956431,-1.1141 c 0.62524,-2.95129 2.50136,-10.73857 2.65176,-11.00674 0.0931,-0.16605 0.16949,2.43137 0.17286,5.87879 0.005,5.44542 0.0431,6.19052 0.31973,6.29666 0.38852,0.14909 6.68821,0.16073 7.073,0.0131 0.1538,-0.059 1.61131,-2.99652 3.23892,-6.52778 1.62761,-3.53125 2.97146,-6.40571 2.98633,-6.38766 0.066,0.0801 -1.89531,10.46721 -2.17683,11.5284 -0.24234,0.91352 -0.25911,1.21773 -0.0736,1.33562 0.42762,0.27175 7.00896,0.19053 7.2263,-0.0892 0.10594,-0.13635 0.29559,-1.00648 0.42144,-1.93363 0.12587,-0.92714 0.94589,-5.37015 1.82228,-9.87335 0.8764,-4.5032 1.54022,-8.27375 1.47517,-8.37901 -0.18951,-0.30664 -11.30193,-0.25225 -11.54847,0.0565 -0.10886,0.13635 -1.02492,2.21127 -2.03568,4.61094 -1.01076,2.39967 -1.98124,4.67539 -2.15661,5.05715 -0.30482,0.66356 -0.32322,0.46273 -0.41802,-4.56135 l -0.0992,-5.25548 -5.68737,-0.0526 c -5.29036,-0.0489 -5.69453,-0.0282 -5.78989,0.29749 -0.0564,0.19254 -0.51317,2.22419 -1.01507,4.51479 -0.92931,4.24126 -2.39598,9.96369 -3.43974,13.42075 -0.42118,1.39498 -0.51964,1.97769 -0.36101,2.13633 0.14633,0.14633 1.36105,0.20037 3.68986,0.16416 l 3.47173,-0.054 z m -38.41987,1.00942 c 0,-0.15382 -1.07682,-2.57294 -2.39293,-5.37583 -1.31611,-2.80288 -2.35024,-5.19817 -2.29806,-5.32286 0.0522,-0.12469 1.84295,-2.21833 3.97949,-4.65253 2.13653,-2.4342 3.88461,-4.55374 3.88461,-4.7101 0,-0.23863 -0.73682,-0.28428 -4.58911,-0.28428 h -4.58912 l -0.5535,0.64454 c -2.46554,2.87106 -7.17481,9.00913 -7.17378,9.35032 4.8e-4,0.22932 0.58327,1.9787 1.29464,3.88753 0.71136,1.90883 1.49439,4.13993 1.74005,4.95799 0.24567,0.81807 0.54436,1.55297 0.66377,1.63311 0.11941,0.0801 2.42589,0.14707 5.12552,0.14874 4.09331,0.002 4.90842,-0.0434 4.90842,-0.27663 z m -16.33944,0.12789 c 0.12115,-0.0801 0.72571,-2.68916 1.34347,-5.79782 0.96903,-4.87626 2.54387,-12.19641 2.99729,-13.93197 l 0.14249,-0.54538 h -4.57908 -4.57908 l -0.10071,0.44622 c -0.0554,0.24542 -0.28517,1.55621 -0.51063,2.91286 -0.58382,3.51309 -1.82777,9.48416 -2.76825,13.28796 -0.44338,1.79324 -0.7613,3.37733 -0.70648,3.52017 0.0779,0.20297 1.02202,0.25907 4.32019,0.2567 2.32129,-10e-4 4.31964,-0.0686 4.44079,-0.14874 z m 235.09025,-5.8474 c -1.389427,-0.70997 -1.690634,-1.27994 -1.684884,-3.18836 0.0057,-1.89591 0.407546,-2.97109 1.608907,-4.30468 1.046831,-1.16206 2.161032,-1.62365 3.946945,-1.63516 1.785512,-0.0115 3.147274,0.58352 3.756968,1.64163 0.51922,0.90106 0.526423,2.86378 0.01606,4.35668 -0.468588,1.3706 -2.020935,2.98397 -3.208793,3.33493 -1.368825,0.40442 -3.428752,0.30919 -4.435148,-0.20504 z m 4.094355,6.18381 c 4.232064,-0.4719 7.164007,-1.75587 9.705277,-4.25019 2.544878,-2.49786 3.521347,-4.82341 3.539075,-8.4286 0.0091,-1.8608 -0.04684,-2.2041 -0.525984,-3.22664 -1.001317,-2.13682 -3.32275,-3.86104 -6.206656,-4.60993 -2.150202,-0.55836 -5.482749,-0.77507 -8.02071,-0.52156 -2.94162,0.29383 -4.244341,0.64055 -6.50822,1.73214 -1.33495,0.64369 -2.223584,1.24961 -3.254052,2.21878 -2.683051,2.52345 -3.78198,5.0111 -3.786659,8.57193 -0.0034,2.37581 0.251173,3.27501 1.34921,4.77084 2.182942,2.97377 7.525822,4.43266 13.708719,3.74323 z m -118.962944,-0.37283 c 3.361859,-0.69328 5.666732,-2.16139 6.665907,-4.24594 0.288972,-0.60286 1.063113,-3.58844 1.893855,-7.3039 0.772793,-3.45633 1.535412,-6.71373 1.694683,-7.23867 0.539647,-1.77864 0.860172,-1.64856 -4.062186,-1.64856 -4.103733,0 -4.367954,0.0222 -4.561356,0.3836 -0.112923,0.21098 -0.2053,0.56974 -0.2053,0.79725 0,0.874 -2.246647,10.86018 -2.62399,11.66344 -0.218548,0.46526 -0.641723,1.01992 -0.940353,1.23257 -1.259331,0.89672 -3.355651,0.60706 -3.785311,-0.52304 -0.25849,-0.67989 -0.216466,-0.92532 1.302049,-7.60422 0.858408,-3.77552 1.178873,-5.53008 1.041358,-5.7017 -0.147411,-0.18398 -1.260025,-0.2479 -4.314785,-0.2479 -3.053947,0 -4.167811,0.064 -4.316332,0.2479 -0.110087,0.13635 -0.263071,0.6495 -0.33992,1.14034 -0.07687,0.49084 -0.711671,3.78203 -1.410669,7.31375 -0.698998,3.53172 -1.270913,6.72506 -1.270913,7.0963 0,2.54307 2.621411,4.51247 6.695198,5.02991 1.970348,0.25027 6.415151,0.0466 8.538065,-0.39113 z m -91.110211,-5.7329 c -0.4471,-0.20841 -1.02719,-0.67936 -1.28908,-1.04657 -0.40411,-0.56658 -0.47466,-0.89279 -0.46613,-2.15505 0.0184,-2.72577 1.60888,-5.14955 3.77749,-5.75672 2.43841,-0.68272 4.76489,-0.021 5.5975,1.592 1.1738,2.27402 -0.21998,6.0497 -2.67778,7.254 -1.12617,0.55181 -3.86561,0.61408 -4.942,0.11234 z m 4.01886,6.10573 c 8.40816,-0.93756 13.66108,-6.13703 13.31003,-13.17459 -0.13115,-2.62937 -1.18535,-4.45019 -3.40838,-5.88701 -2.51802,-1.62747 -7.00356,-2.41787 -11.27363,-1.98652 -2.95697,0.2987 -4.42827,0.68799 -6.69282,1.77084 -1.56657,0.74909 -2.15528,1.17206 -3.49376,2.51019 -2.19075,2.19019 -3.20364,4.27089 -3.54111,7.27425 -0.15524,1.38157 0.1806,3.55271 0.7101,4.59061 1.94864,3.81965 7.41062,5.68043 14.38957,4.90223 z"
       inkscape:connector-curvature="0" />
  </g>
</svg>
